<?xml version="1.0" encoding="UTF-8" standalone="no"?>
<!-- Created with Inkscape (http://www.inkscape.org/) -->

<svg
   width="300mm"
   height="200mm"
   viewBox="0 0 300 200"
   version="1.1"
   id="svg5"
   inkscape:version="1.2.2 (b0a8486541, 2022-12-01)"
   sodipodi:docname="problem_space_axis.svg"
   xml:space="preserve"
   inkscape:export-filename="problem_space_axis.png"
   inkscape:export-xdpi="96"
   inkscape:export-ydpi="96"
   xmlns:inkscape="http://www.inkscape.org/namespaces/inkscape"
   xmlns:sodipodi="http://sodipodi.sourceforge.net/DTD/sodipodi-0.dtd"
   xmlns="http://www.w3.org/2000/svg"
   xmlns:svg="http://www.w3.org/2000/svg"><sodipodi:namedview
     id="namedview7"
     pagecolor="#ffffff"
     bordercolor="#666666"
     borderopacity="1.0"
     inkscape:showpageshadow="2"
     inkscape:pageopacity="0.0"
     inkscape:pagecheckerboard="0"
     inkscape:deskcolor="#d1d1d1"
     inkscape:document-units="mm"
     showgrid="false"
     inkscape:zoom="1.4410167"
     inkscape:cx="540.59054"
     inkscape:cy="394.51312"
     inkscape:window-width="2476"
     inkscape:window-height="1470"
     inkscape:window-x="703"
     inkscape:window-y="477"
     inkscape:window-maximized="0"
     inkscape:current-layer="layer1" /><defs
     id="defs2"><linearGradient
   id="linearGradient1509"
   inkscape:swatch="solid"><stop
     style="stop-color:#f7bdbd;stop-opacity:1;"
     offset="0"
     id="stop1507" /></linearGradient><marker
   style="overflow:visible"
   id="Arrow5"
   refX="0"
   refY="0"
   orient="auto-start-reverse"
   inkscape:stockid="Arrow5"
   markerWidth="5.8874259"
   markerHeight="6.6094756"
   viewBox="0 0 5.8874262 6.6094758"
   inkscape:isstock="true"
   inkscape:collect="always"
   preserveAspectRatio="xMidYMid"><path
     transform="scale(0.5)"
     style="fill:context-stroke;fill-rule:evenodd;stroke:context-stroke;stroke-width:1pt"
     d="m 6,0 c -3,1 -7,3 -9,5 0,0 0,-4 2,-5 -2,-1 -2,-5 -2,-5 2,2 6,4 9,5 z"
     id="path8893" /></marker><clipPath
   id="clipPath8805">
      <path
   clip-rule="nonzero"
   d="m 7,0 h 4 V 10.910156 H 7 Z m 0,0"
   id="path3662" />
    </clipPath>
    <clipPath
   id="clipPath1962">
      <path
   clip-rule="nonzero"
   d="m 15,0 h 3 v 10.910156 h -3 z m 0,0"
   id="path3874" />
    </clipPath>
  <clipPath
   id="clipPath4700">
      <path
   clip-rule="nonzero"
   d="m 7,0 h 4 V 10.910156 H 7 Z m 0,0"
   id="path3699" />
    </clipPath>
    <clipPath
   id="clipPath6645">
      <path
   clip-rule="nonzero"
   d="m 15,0 h 3 v 10.910156 h -3 z m 0,0"
   id="path3492" />
    </clipPath>
    <clipPath
   id="clipPath5767">
      <path
   clip-rule="nonzero"
   d="M 60,0 H 88.804688 V 9 H 60 Z m 0,0"
   id="path6439" />
    </clipPath>
  <clipPath
   id="clipPath1581">
      <path
   clip-rule="nonzero"
   d="m 0,3 h 7 v 7.910156 H 0 Z m 0,0"
   id="path180" />
    </clipPath>
    <clipPath
   id="clipPath4266">
      <path
   clip-rule="nonzero"
   d="m 8,0 h 3 V 10.910156 H 8 Z m 0,0"
   id="path4558" />
    </clipPath>
    <clipPath
   id="clipPath7356">
      <path
   clip-rule="nonzero"
   d="m 15,0 h 4 v 10.910156 h -4 z m 0,0"
   id="path5349" />
    </clipPath>
    <clipPath
   id="clipPath7098">
      <path
   clip-rule="nonzero"
   d="m 67,1 h 46.58203 V 9 H 67 Z m 0,0"
   id="path1010" />
    </clipPath>
  <clipPath
   id="clipPath8635">
      <path
   clip-rule="nonzero"
   d="M 0,0 H 4 V 7.941406 H 0 Z m 0,0"
   id="path6116" />
    </clipPath>
    <clipPath
   id="clipPath1833">
      <path
   clip-rule="nonzero"
   d="m 7,1 h 7 V 7.941406 H 7 Z m 0,0"
   id="path7439" />
    </clipPath>
    <clipPath
   id="clipPath1790">
      <path
   clip-rule="nonzero"
   d="m 17,0 h 8 v 7.941406 h -8 z m 0,0"
   id="path3227" />
    </clipPath>
    <clipPath
   id="clipPath5801">
      <path
   clip-rule="nonzero"
   d="m 29,2 h 2 v 5.941406 h -2 z m 0,0"
   id="path5483" />
    </clipPath>
    <clipPath
   id="clipPath6800">
      <path
   clip-rule="nonzero"
   d="M 38,0 H 62.726562 V 7.941406 H 38 Z m 0,0"
   id="path1068" />
    </clipPath>
  <clipPath
   id="clipPath6694">
      <path
   clip-rule="nonzero"
   d="M 0,0 H 4 V 7.941406 H 0 Z m 0,0"
   id="path4665" />
    </clipPath>
    <clipPath
   id="clipPath624">
      <path
   clip-rule="nonzero"
   d="m 7,1 h 7 V 7.941406 H 7 Z m 0,0"
   id="path6650" />
    </clipPath>
    <clipPath
   id="clipPath3767">
      <path
   clip-rule="nonzero"
   d="m 17,0 h 8 v 7.941406 h -8 z m 0,0"
   id="path311" />
    </clipPath>
    <clipPath
   id="clipPath2911">
      <path
   clip-rule="nonzero"
   d="m 29,2 h 2 v 5.941406 h -2 z m 0,0"
   id="path1404" />
    </clipPath>
    <clipPath
   id="clipPath6809">
      <path
   clip-rule="nonzero"
   d="M 34,0 H 59 V 7.941406 H 34 Z m 0,0"
   id="path2532" />
    </clipPath>
  <clipPath
   id="clipPath1855">
      <path
   clip-rule="nonzero"
   d="m 44,6 h 6 v 5.367188 h -6 z m 0,0"
   id="path5660" />
    </clipPath>
  <clipPath
   id="clipPath6117">
      <path
   clip-rule="nonzero"
   d="m 43,6 h 5 v 5.367188 h -5 z m 0,0"
   id="path9238" />
    </clipPath>
  <clipPath
   id="clipPath2563">
      <path
   clip-rule="nonzero"
   d="m 23,0 h 3 v 10.910156 h -3 z m 0,0"
   id="path5444" />
    </clipPath>
    <clipPath
   id="clipPath2035">
      <path
   clip-rule="nonzero"
   d="m 49,0 h 3 v 10.910156 h -3 z m 0,0"
   id="path895" />
    </clipPath>
  <clipPath
   id="clipPath4119">
      <path
   clip-rule="nonzero"
   d="m 14,0 h 6 v 20.628906 h -6 z m 0,0"
   id="path9358" />
    </clipPath>
    <clipPath
   id="clipPath9500">
      <path
   clip-rule="nonzero"
   d="m 28,0 h 5 v 20.628906 h -5 z m 0,0"
   id="path1350" />
    </clipPath>
  </defs><g
     inkscape:label="Layer 1"
     inkscape:groupmode="layer"
     id="layer1"><g
       id="g508"
       style="stroke-width:1.6;stroke-dasharray:none"
       transform="matrix(0.96065367,0,0,0.96065367,-0.09073159,1.3033273)"><path
         style="fill:none;stroke:#000000;stroke-width:1.6;stroke-linecap:butt;stroke-linejoin:miter;stroke-dasharray:none;stroke-opacity:1;marker-start:url(#Arrow5);marker-end:url(#Arrow5)"
         d="M 158.09865,8.1051103 157.30528,110.73372 290.17645,142.50441"
         id="path236"
         sodipodi:nodetypes="ccc" /><path
         style="fill:none;stroke:#000000;stroke-width:1.6;stroke-linecap:butt;stroke-linejoin:miter;stroke-dasharray:none;stroke-opacity:1;marker-start:url(#Arrow5)"
         d="M 13.944746,155.61376 157.34029,110.69963"
         id="path238"
         sodipodi:nodetypes="cc" /></g><g
       inkscape:label=""
       transform="matrix(1.5054787,0,0,1.5054787,158.12214,4.9218479)"
       id="g13508"><g
   clip-path="url(#clipPath1581)"
   id="g70"
   transform="matrix(0.352778,0,0,0.352778,-0.143316,-0.00357193)">
    <g
   fill="#000000"
   fill-opacity="1"
   id="g13453">
      <g
   id="g13451"
   transform="translate(0,8.1820002)">
        <path
   d="m 2.40625,-3.59375 c 0,-0.203125 0,-0.21875 0.15625,-0.359375 0.4375,-0.453125 1,-0.515625 1.25,-0.515625 0.71875,0 1.328125,0.65625 1.328125,2.03125 0,1.546875 -0.75,2.109375 -1.46875,2.109375 -0.15625,0 -0.65625,0 -1.15625,-0.59375 C 2.40625,-1.0625 2.40625,-1.0625 2.40625,-1.28125 Z m 0,3.171875 c 0.46875,0.375 0.9375,0.484375 1.390625,0.484375 1.640625,0 2.75,-0.984375 2.75,-2.5 0,-1.4375 -1,-2.46875 -2.5625,-2.46875 -0.828125,0 -1.40625,0.34375 -1.65625,0.53125 V -4.90625 L 0.40625,-4.828125 V -4.3125 c 0.671875,0 0.75,0 0.75,0.421875 v 5.5 h -0.75 v 0.5 c 0.296875,0 0.953125,-0.03125 1.375,-0.03125 0.421875,0 1.0625,0.03125 1.375,0.03125 v -0.5 h -0.75 z m 0,0"
   id="path138" />
      </g>
    </g>
  </g>
  <g
   clip-path="url(#clipPath4266)"
   id="g76"
   transform="matrix(0.352778,0,0,0.352778,-0.143316,-0.00357193)">
    <g
   fill="#000000"
   fill-opacity="1"
   id="g74">
      <g
   id="g13457"
   transform="translate(6.9699998,8.1820002)">
        <path
   d="m 3.609375,2.625 c 0,-0.046875 0,-0.0625 -0.1875,-0.25 C 2.0625,1 1.71875,-1.0625 1.71875,-2.71875 c 0,-1.90625 0.40625,-3.796875 1.75,-5.171875 0.140625,-0.125 0.140625,-0.140625 0.140625,-0.1875 0,-0.0625 -0.046875,-0.09375 -0.109375,-0.09375 -0.109375,0 -1.09375,0.734375 -1.734375,2.125 -0.5625,1.1875 -0.6875,2.40625 -0.6875,3.328125 0,0.84375 0.125,2.15625 0.71875,3.390625 C 2.453125,2.015625 3.390625,2.71875 3.5,2.71875 3.5625,2.71875 3.609375,2.6875 3.609375,2.625 Z m 0,0"
   id="path142" />
      </g>
    </g>
  </g>
  <g
   fill="#000000"
   fill-opacity="1"
   id="g13464"
   transform="matrix(0.352778,0,0,0.352778,-0.143316,-0.00357193)">
    <g
   id="g13462"
   transform="translate(11.212,8.1820002)">
      <path
   d="m 2.25,-4.359375 h 1.015625 c 0.21875,0 0.328125,0 0.328125,-0.21875 0,-0.125 -0.109375,-0.125 -0.296875,-0.125 H 2.328125 C 2.71875,-6.25 2.78125,-6.46875 2.78125,-6.53125 c 0,-0.1875 -0.125,-0.296875 -0.3125,-0.296875 -0.03125,0 -0.34375,0.015625 -0.4375,0.390625 l -0.421875,1.734375 h -1.03125 c -0.21875,0 -0.328125,0 -0.328125,0.203125 0,0.140625 0.09375,0.140625 0.3125,0.140625 h 0.953125 c -0.78125,3.09375 -0.828125,3.28125 -0.828125,3.46875 0,0.59375 0.40625,1.015625 1,1.015625 1.109375,0 1.734375,-1.59375 1.734375,-1.6875 0,-0.109375 -0.078125,-0.109375 -0.125,-0.109375 -0.09375,0 -0.109375,0.03125 -0.171875,0.15625 C 2.65625,-0.375 2.078125,-0.125 1.71875,-0.125 c -0.234375,0 -0.34375,-0.140625 -0.34375,-0.5 0,-0.265625 0.015625,-0.328125 0.0625,-0.515625 z m 0,0"
   id="path146" />
    </g>
  </g>
  <g
   clip-path="url(#clipPath7356)"
   id="g86"
   transform="matrix(0.352778,0,0,0.352778,-0.143316,-0.00357193)">
    <g
   fill="#000000"
   fill-opacity="1"
   id="g84">
      <g
   id="use82"
   transform="translate(15.151,8.1820002)">
        <path
   d="m 3.15625,-2.71875 c 0,-0.859375 -0.125,-2.171875 -0.71875,-3.40625 -0.65625,-1.34375 -1.59375,-2.046875 -1.703125,-2.046875 -0.0625,0 -0.109375,0.03125 -0.109375,0.09375 0,0.046875 0,0.0625 0.203125,0.265625 1.0625,1.078125 1.6875,2.8125 1.6875,5.09375 0,1.859375 -0.40625,3.78125 -1.75,5.15625 C 0.625,2.5625 0.625,2.578125 0.625,2.625 c 0,0.0625 0.046875,0.09375 0.109375,0.09375 0.109375,0 1.09375,-0.734375 1.734375,-2.125 0.546875,-1.1875 0.6875,-2.40625 0.6875,-3.3125 z m 0,0"
   id="path150" />
      </g>
    </g>
  </g>
  <g
   fill="#000000"
   fill-opacity="1"
   id="g90"
   transform="matrix(0.352778,0,0,0.352778,-0.143316,-0.00357193)">
    <g
   id="use88"
   transform="translate(22.424,8.1820002)">
      <path
   d="m 5.984375,-2.515625 c 0.171875,0 0.375,0 0.375,-0.203125 0,-0.21875 -0.203125,-0.21875 -0.375,-0.21875 h -4.625 c 0.125,-1.46875 1.375,-2.515625 2.921875,-2.515625 h 1.703125 c 0.171875,0 0.375,0 0.375,-0.21875 0,-0.21875 -0.203125,-0.21875 -0.375,-0.21875 H 4.25 c -1.859375,0 -3.34375,1.421875 -3.34375,3.171875 0,1.734375 1.484375,3.15625 3.34375,3.15625 h 1.734375 c 0.171875,0 0.375,0 0.375,-0.21875 C 6.359375,0 6.15625,0 5.984375,0 H 4.28125 C 2.734375,0 1.484375,-1.046875 1.359375,-2.515625 Z m 0,0"
   id="path154" />
    </g>
  </g>
  <g
   fill="#000000"
   fill-opacity="1"
   id="g94"
   transform="matrix(0.352778,0,0,0.352778,-0.143316,-0.00357193)">
    <g
   id="use92"
   transform="translate(32.727001,8.1820002)">
      <path
   d="M 2.921875,-3.421875 H 3.3125 l 1.640625,2.53125 C 5.0625,-0.71875 5.328125,-0.296875 5.4375,-0.125 5.515625,0 5.546875,0 5.796875,0 H 7.3125 C 7.5,0 7.671875,0 7.671875,-0.203125 7.671875,-0.28125 7.609375,-0.359375 7.5,-0.375 7.09375,-0.46875 6.5625,-1.1875 6.296875,-1.53125 6.234375,-1.640625 5.6875,-2.359375 4.953125,-3.546875 5.921875,-3.71875 6.859375,-4.140625 6.859375,-5.4375 6.859375,-6.953125 5.25,-7.46875 3.96875,-7.46875 H 0.546875 c -0.203125,0 -0.375,0 -0.375,0.1875 0,0.1875 0.203125,0.1875 0.296875,0.1875 0.625,0 0.671875,0.078125 0.671875,0.625 V -1 c 0,0.546875 -0.046875,0.625 -0.671875,0.625 -0.09375,0 -0.296875,0 -0.296875,0.171875 C 0.171875,0 0.34375,0 0.546875,0 H 3.53125 C 3.734375,0 3.890625,0 3.890625,-0.203125 3.890625,-0.375 3.703125,-0.375 3.59375,-0.375 2.96875,-0.375 2.921875,-0.46875 2.921875,-1 Z m 2.109375,-0.53125 c 0.296875,-0.40625 0.328125,-0.984375 0.328125,-1.46875 0,-0.515625 -0.0625,-1.09375 -0.40625,-1.546875 0.453125,0.09375 1.53125,0.4375 1.53125,1.53125 0,0.71875 -0.328125,1.265625 -1.453125,1.484375 z M 2.921875,-6.5 c 0,-0.234375 0,-0.59375 0.671875,-0.59375 0.9375,0 1.390625,0.390625 1.390625,1.671875 0,1.40625 -0.34375,1.609375 -2.0625,1.609375 z M 1.4375,-0.375 c 0.09375,-0.203125 0.09375,-0.515625 0.09375,-0.609375 v -5.5 c 0,-0.109375 0,-0.40625 -0.09375,-0.609375 h 1.25 c -0.140625,0.171875 -0.140625,0.390625 -0.140625,0.5625 v 5.546875 c 0,0.109375 0,0.40625 0.078125,0.609375 z M 3.765625,-3.421875 C 3.84375,-3.4375 3.875,-3.453125 3.96875,-3.453125 c 0.171875,0 0.40625,-0.015625 0.5625,-0.03125 0.171875,0.25 1.34375,2.203125 2.25,3.109375 h -1.0625 z m 0,0"
   id="path158" />
    </g>
  </g>
  <g
   fill="#000000"
   fill-opacity="1"
   id="g98"
   transform="matrix(0.352778,0,0,0.352778,-0.143316,-0.00357193)">
    <g
   id="use96"
   transform="translate(40.605999,4.223)">
      <path
   d="m 1.59375,-1.3125 c 0.03125,-0.109375 0.109375,-0.421875 0.125,-0.53125 0.109375,-0.4375 0.109375,-0.4375 0.296875,-0.703125 0.265625,-0.390625 0.640625,-0.75 1.171875,-0.75 0.28125,0 0.453125,0.171875 0.453125,0.546875 0,0.4375 -0.328125,1.34375 -0.484375,1.734375 -0.109375,0.265625 -0.109375,0.3125 -0.109375,0.421875 0,0.453125 0.375,0.671875 0.71875,0.671875 0.78125,0 1.109375,-1.109375 1.109375,-1.21875 C 4.875,-1.21875 4.8125,-1.25 4.75,-1.25 c -0.09375,0 -0.109375,0.0625 -0.125,0.140625 -0.1875,0.65625 -0.53125,0.96875 -0.828125,0.96875 -0.125,0 -0.1875,-0.078125 -0.1875,-0.265625 0,-0.1875 0.0625,-0.359375 0.140625,-0.5625 0.109375,-0.296875 0.46875,-1.21875 0.46875,-1.65625 0,-0.609375 -0.421875,-0.890625 -0.984375,-0.890625 -0.65625,0 -1.0625,0.390625 -1.296875,0.6875 -0.0625,-0.4375 -0.40625,-0.6875 -0.8125,-0.6875 -0.28125,0 -0.484375,0.1875 -0.609375,0.4375 -0.203125,0.375 -0.28125,0.765625 -0.28125,0.78125 0,0.078125 0.0625,0.109375 0.125,0.109375 0.109375,0 0.109375,-0.03125 0.171875,-0.25 0.09375,-0.390625 0.234375,-0.859375 0.5625,-0.859375 0.21875,0 0.265625,0.203125 0.265625,0.375 0,0.15625 -0.046875,0.296875 -0.109375,0.5625 -0.015625,0.0625 -0.140625,0.53125 -0.171875,0.640625 L 0.78125,-0.515625 c -0.03125,0.125 -0.078125,0.3125 -0.078125,0.34375 0,0.1875 0.15625,0.25 0.265625,0.25 0.140625,0 0.265625,-0.09375 0.3125,-0.1875 C 1.3125,-0.15625 1.375,-0.4375 1.40625,-0.59375 Z m 0,0"
   id="path162" />
    </g>
  </g>
  <g
   fill="#000000"
   fill-opacity="1"
   id="g102"
   transform="matrix(0.352778,0,0,0.352778,-0.143316,-0.00357193)">
    <g
   id="use100"
   transform="translate(45.743999,5.2189999)">
      <path
   d="M 0.578125,0.71875 C 0.53125,0.875 0.53125,0.921875 0.28125,0.921875 c -0.078125,0 -0.125,0 -0.140625,0.03125 -0.015625,0.03125 -0.03125,0.109375 -0.03125,0.125 0,0.015625 0,0.078125 0.09375,0.078125 0.15625,0 0.359375,-0.015625 0.53125,-0.015625 0.109375,0 0.21875,0 0.328125,0 0.109375,0 0.21875,0.015625 0.328125,0.015625 0.03125,0 0.078125,0 0.09375,-0.03125 C 1.5,1.09375 1.53125,1.03125 1.53125,1 1.515625,0.921875 1.453125,0.921875 1.34375,0.921875 c -0.140625,0 -0.296875,0 -0.296875,-0.078125 0,-0.03125 0.046875,-0.171875 0.0625,-0.265625 l 0.21875,-0.875 C 1.46875,-0.078125 1.6875,0.0625 1.984375,0.0625 c 0.796875,0 1.59375,-0.828125 1.59375,-1.6875 0,-0.625 -0.4375,-1.015625 -0.953125,-1.015625 -0.484375,0 -0.859375,0.390625 -0.890625,0.421875 C 1.625,-2.5625 1.25,-2.640625 1.078125,-2.640625 c -0.28125,0 -0.421875,0.203125 -0.5,0.328125 -0.140625,0.25 -0.21875,0.5625 -0.21875,0.59375 0,0.0625 0.0625,0.078125 0.109375,0.078125 0.09375,0 0.109375,-0.03125 0.140625,-0.125 0.125,-0.5 0.265625,-0.671875 0.453125,-0.671875 0.21875,0 0.21875,0.234375 0.21875,0.296875 0,0.109375 -0.015625,0.125 -0.03125,0.171875 z m 1.125,-2.515625 c 0.03125,-0.109375 0.03125,-0.125 0.140625,-0.234375 0.1875,-0.21875 0.484375,-0.40625 0.765625,-0.40625 0.28125,0 0.46875,0.21875 0.46875,0.578125 0,0.203125 -0.125,0.875 -0.359375,1.234375 -0.203125,0.3125 -0.484375,0.484375 -0.734375,0.484375 -0.453125,0 -0.5625,-0.46875 -0.5625,-0.515625 0,-0.03125 0.015625,-0.0625 0.015625,-0.078125 z m 0,0"
   id="path166" />
    </g>
  </g>
  <g
   fill="#000000"
   fill-opacity="1"
   id="g106"
   transform="matrix(0.352778,0,0,0.352778,-0.143316,-0.00357193)">
    <g
   id="use104"
   transform="translate(53.611,8.1820002)">
      <path
   d="m 2.09375,-4.125 c 0,-0.3125 -0.265625,-0.578125 -0.578125,-0.578125 -0.3125,0 -0.578125,0.265625 -0.578125,0.578125 0,0.3125 0.265625,0.578125 0.578125,0.578125 0.3125,0 0.578125,-0.265625 0.578125,-0.578125 z m 0,3.546875 c 0,-0.3125 -0.265625,-0.578125 -0.578125,-0.578125 -0.3125,0 -0.578125,0.265625 -0.578125,0.578125 C 0.9375,-0.265625 1.203125,0 1.515625,0 1.828125,0 2.09375,-0.265625 2.09375,-0.578125 Z m 0,0"
   id="path170" />
    </g>
  </g>
  <g
   fill="#000000"
   fill-opacity="1"
   id="g110"
   transform="matrix(0.352778,0,0,0.352778,-0.143316,-0.00357193)">
    <g
   id="use108"
   transform="translate(59.674278,8.1820002)">
      <path
   d="M 2.46875,-3.453125 H 4.3125 c 1.3125,0 2.5,-0.875 2.5,-1.96875 0,-1.0625 -1.09375,-2.03125 -2.578125,-2.03125 H 0.375 v 0.34375 h 0.265625 c 0.84375,0 0.859375,0.125 0.859375,0.515625 v 5.75 c 0,0.390625 -0.015625,0.5 -0.859375,0.5 H 0.375 V 0 c 0.390625,-0.03125 1.203125,-0.03125 1.609375,-0.03125 0.421875,0 1.234375,0 1.609375,0.03125 v -0.34375 h -0.25 c -0.84375,0 -0.875,-0.109375 -0.875,-0.5 z M 2.4375,-3.734375 v -2.9375 c 0,-0.359375 0.03125,-0.4375 0.546875,-0.4375 h 0.96875 c 1.734375,0 1.734375,1.15625 1.734375,1.6875 0,0.515625 0,1.6875 -1.734375,1.6875 z m 0,0"
   id="path174" />
    </g>
  </g>
  <g
   clip-path="url(#clipPath7098)"
   id="g132"
   transform="matrix(0.352778,0,0,0.352778,-0.143316,-0.00357193)">
    <g
   fill="#000000"
   fill-opacity="1"
   id="g130">
      <g
   id="use112"
   transform="translate(66.793556,8.1820002)">
        <path
   d="M 3.625,-0.828125 C 3.671875,-0.390625 3.96875,0.0625 4.484375,0.0625 4.71875,0.0625 5.375,-0.09375 5.375,-0.96875 V -1.578125 H 5.109375 v 0.609375 c 0,0.625 -0.28125,0.703125 -0.390625,0.703125 -0.359375,0 -0.40625,-0.5 -0.40625,-0.546875 V -3 c 0,-0.453125 0,-0.875 -0.390625,-1.28125 -0.4375,-0.4375 -0.984375,-0.609375 -1.5,-0.609375 -0.890625,0 -1.640625,0.515625 -1.640625,1.234375 0,0.328125 0.21875,0.515625 0.5,0.515625 0.296875,0 0.5,-0.21875 0.5,-0.5 0,-0.140625 -0.0625,-0.5 -0.5625,-0.5 0.296875,-0.390625 0.828125,-0.5 1.1875,-0.5 0.53125,0 1.15625,0.421875 1.15625,1.390625 v 0.40625 C 3,-2.8125 2.234375,-2.78125 1.546875,-2.453125 c -0.8125,0.375 -1.09375,0.9375 -1.09375,1.421875 0,0.875 1.0625,1.15625 1.75,1.15625 0.71875,0 1.21875,-0.4375 1.421875,-0.953125 z M 3.5625,-2.625 v 1.09375 c 0,1.046875 -0.796875,1.40625 -1.28125,1.40625 -0.53125,0 -0.984375,-0.375 -0.984375,-0.921875 0,-0.59375 0.453125,-1.5 2.265625,-1.578125 z m 0,0"
   id="path178" />
      </g>
      <g
   id="use114"
   transform="translate(72.248108,8.1820002)">
        <path
   d="m 1.828125,-3.625 v -1.203125 l -1.515625,0.125 v 0.34375 c 0.75,0 0.84375,0.078125 0.84375,0.609375 v 2.921875 c 0,0.484375 -0.125,0.484375 -0.84375,0.484375 V 0 c 0.421875,-0.015625 0.9375,-0.03125 1.234375,-0.03125 0.4375,0 0.953125,0 1.390625,0.03125 V -0.34375 H 2.703125 c -0.8125,0 -0.828125,-0.109375 -0.828125,-0.5 v -1.6875 c 0,-1.078125 0.453125,-2.046875 1.28125,-2.046875 0.078125,0 0.109375,0 0.125,0.015625 -0.03125,0 -0.25,0.140625 -0.25,0.421875 0,0.296875 0.234375,0.46875 0.46875,0.46875 0.203125,0 0.46875,-0.140625 0.46875,-0.484375 0,-0.34375 -0.34375,-0.671875 -0.8125,-0.671875 -0.796875,0 -1.1875,0.734375 -1.328125,1.203125 z m 0,0"
   id="path182" />
      </g>
      <g
   id="use116"
   transform="translate(76.521202,8.1820002)">
        <path
   d="M 3.625,-0.828125 C 3.671875,-0.390625 3.96875,0.0625 4.484375,0.0625 4.71875,0.0625 5.375,-0.09375 5.375,-0.96875 V -1.578125 H 5.109375 v 0.609375 c 0,0.625 -0.28125,0.703125 -0.390625,0.703125 -0.359375,0 -0.40625,-0.5 -0.40625,-0.546875 V -3 c 0,-0.453125 0,-0.875 -0.390625,-1.28125 -0.4375,-0.4375 -0.984375,-0.609375 -1.5,-0.609375 -0.890625,0 -1.640625,0.515625 -1.640625,1.234375 0,0.328125 0.21875,0.515625 0.5,0.515625 0.296875,0 0.5,-0.21875 0.5,-0.5 0,-0.140625 -0.0625,-0.5 -0.5625,-0.5 0.296875,-0.390625 0.828125,-0.5 1.1875,-0.5 0.53125,0 1.15625,0.421875 1.15625,1.390625 v 0.40625 C 3,-2.8125 2.234375,-2.78125 1.546875,-2.453125 c -0.8125,0.375 -1.09375,0.9375 -1.09375,1.421875 0,0.875 1.0625,1.15625 1.75,1.15625 0.71875,0 1.21875,-0.4375 1.421875,-0.953125 z M 3.5625,-2.625 v 1.09375 c 0,1.046875 -0.796875,1.40625 -1.28125,1.40625 -0.53125,0 -0.984375,-0.375 -0.984375,-0.921875 0,-0.59375 0.453125,-1.5 2.265625,-1.578125 z m 0,0"
   id="path186" />
      </g>
      <g
   id="use118"
   transform="translate(81.975754,8.1820002)">
        <path
   d="m 1.203125,-3.75 v 2.921875 c 0,0.484375 -0.125,0.484375 -0.859375,0.484375 V 0 c 0.390625,-0.015625 0.9375,-0.03125 1.234375,-0.03125 0.28125,0 0.859375,0.015625 1.21875,0.03125 v -0.34375 c -0.71875,0 -0.84375,0 -0.84375,-0.484375 v -2 c 0,-1.140625 0.765625,-1.75 1.46875,-1.75 0.6875,0 0.8125,0.59375 0.8125,1.203125 v 2.546875 c 0,0.484375 -0.125,0.484375 -0.859375,0.484375 V 0 c 0.390625,-0.015625 0.9375,-0.03125 1.234375,-0.03125 0.28125,0 0.859375,0.015625 1.21875,0.03125 v -0.34375 c -0.71875,0 -0.84375,0 -0.84375,-0.484375 v -2 c 0,-1.140625 0.78125,-1.75 1.46875,-1.75 0.6875,0 0.8125,0.59375 0.8125,1.203125 v 2.546875 c 0,0.484375 -0.125,0.484375 -0.859375,0.484375 V 0 c 0.390625,-0.015625 0.9375,-0.03125 1.234375,-0.03125 0.28125,0 0.859375,0.015625 1.21875,0.03125 v -0.34375 c -0.5625,0 -0.828125,0 -0.84375,-0.328125 V -2.75 c 0,-0.9375 0,-1.28125 -0.34375,-1.671875 -0.140625,-0.1875 -0.5,-0.40625 -1.140625,-0.40625 -0.921875,0 -1.390625,0.65625 -1.578125,1.078125 C 4.796875,-4.703125 3.984375,-4.828125 3.5,-4.828125 c -0.796875,0 -1.3125,0.46875 -1.609375,1.15625 v -1.15625 l -1.546875,0.125 v 0.34375 c 0.765625,0 0.859375,0.078125 0.859375,0.609375 z m 0,0"
   id="path190" />
      </g>
      <g
   id="use120"
   transform="translate(91.066307,8.1820002)">
        <path
   d="m 1.21875,-2.75 c 0.0625,-1.625 0.984375,-1.890625 1.359375,-1.890625 1.125,0 1.234375,1.46875 1.234375,1.890625 z M 1.203125,-2.515625 H 4.25 c 0.25,0 0.28125,0 0.28125,-0.234375 0,-1.078125 -0.59375,-2.140625 -1.953125,-2.140625 -1.265625,0 -2.265625,1.125 -2.265625,2.484375 0,1.46875 1.140625,2.53125 2.390625,2.53125 1.328125,0 1.828125,-1.21875 1.828125,-1.421875 0,-0.109375 -0.09375,-0.125 -0.140625,-0.125 -0.109375,0 -0.125,0.0625 -0.140625,0.140625 -0.390625,1.125 -1.375,1.125 -1.484375,1.125 -0.546875,0 -0.984375,-0.328125 -1.234375,-0.734375 C 1.203125,-1.40625 1.203125,-2.125 1.203125,-2.515625 Z m 0,0"
   id="path194" />
      </g>
      <g
   id="use122"
   transform="translate(95.914307,8.1820002)">
        <path
   d="m 1.890625,-4.359375 h 1.5625 v -0.34375 h -1.5625 v -2 h -0.28125 c 0,0.890625 -0.328125,2.0625 -1.40625,2.09375 v 0.25 h 0.9375 v 3 c 0,1.34375 1.015625,1.484375 1.40625,1.484375 C 3.3125,0.125 3.625,-0.65625 3.625,-1.359375 V -1.96875 H 3.34375 V -1.375 c 0,0.8125 -0.328125,1.21875 -0.71875,1.21875 -0.734375,0 -0.734375,-0.984375 -0.734375,-1.171875 z m 0,0"
   id="path198" />
      </g>
      <g
   id="use124"
   transform="translate(100.15686,8.1820002)">
        <path
   d="m 1.21875,-2.75 c 0.0625,-1.625 0.984375,-1.890625 1.359375,-1.890625 1.125,0 1.234375,1.46875 1.234375,1.890625 z M 1.203125,-2.515625 H 4.25 c 0.25,0 0.28125,0 0.28125,-0.234375 0,-1.078125 -0.59375,-2.140625 -1.953125,-2.140625 -1.265625,0 -2.265625,1.125 -2.265625,2.484375 0,1.46875 1.140625,2.53125 2.390625,2.53125 1.328125,0 1.828125,-1.21875 1.828125,-1.421875 0,-0.109375 -0.09375,-0.125 -0.140625,-0.125 -0.109375,0 -0.125,0.0625 -0.140625,0.140625 -0.390625,1.125 -1.375,1.125 -1.484375,1.125 -0.546875,0 -0.984375,-0.328125 -1.234375,-0.734375 C 1.203125,-1.40625 1.203125,-2.125 1.203125,-2.515625 Z m 0,0"
   id="path202" />
      </g>
      <g
   id="use126"
   transform="translate(105.00486,8.1820002)">
        <path
   d="m 1.828125,-3.625 v -1.203125 l -1.515625,0.125 v 0.34375 c 0.75,0 0.84375,0.078125 0.84375,0.609375 v 2.921875 c 0,0.484375 -0.125,0.484375 -0.84375,0.484375 V 0 c 0.421875,-0.015625 0.9375,-0.03125 1.234375,-0.03125 0.4375,0 0.953125,0 1.390625,0.03125 V -0.34375 H 2.703125 c -0.8125,0 -0.828125,-0.109375 -0.828125,-0.5 v -1.6875 c 0,-1.078125 0.453125,-2.046875 1.28125,-2.046875 0.078125,0 0.109375,0 0.125,0.015625 -0.03125,0 -0.25,0.140625 -0.25,0.421875 0,0.296875 0.234375,0.46875 0.46875,0.46875 0.203125,0 0.46875,-0.140625 0.46875,-0.484375 0,-0.34375 -0.34375,-0.671875 -0.8125,-0.671875 -0.796875,0 -1.1875,0.734375 -1.328125,1.203125 z m 0,0"
   id="path206" />
      </g>
      <g
   id="use128"
   transform="translate(109.27795,8.1820002)">
        <path
   d="m 2.265625,-2.109375 c 0.25,0.03125 1.140625,0.21875 1.140625,1 C 3.40625,-0.5625 3.015625,-0.125 2.171875,-0.125 1.25,-0.125 0.859375,-0.734375 0.65625,-1.671875 0.625,-1.8125 0.609375,-1.859375 0.5,-1.859375 c -0.140625,0 -0.140625,0.078125 -0.140625,0.28125 v 1.4375 c 0,0.1875 0,0.265625 0.125,0.265625 0.046875,0 0.0625,-0.015625 0.265625,-0.21875 0.03125,-0.03125 0.03125,-0.046875 0.21875,-0.25 C 1.453125,0.109375 1.9375,0.125 2.171875,0.125 c 1.25,0 1.75,-0.734375 1.75,-1.515625 0,-0.578125 -0.328125,-0.90625 -0.453125,-1.046875 -0.359375,-0.34375 -0.78125,-0.4375 -1.25,-0.515625 -0.609375,-0.125 -1.328125,-0.265625 -1.328125,-0.890625 0,-0.390625 0.28125,-0.828125 1.21875,-0.828125 1.1875,0 1.25,0.96875 1.265625,1.3125 0.015625,0.09375 0.109375,0.09375 0.140625,0.09375 0.140625,0 0.140625,-0.046875 0.140625,-0.25 V -4.625 c 0,-0.1875 0,-0.265625 -0.125,-0.265625 -0.046875,0 -0.078125,0 -0.21875,0.140625 -0.03125,0.03125 -0.140625,0.140625 -0.1875,0.171875 -0.40625,-0.3125 -0.859375,-0.3125 -1.015625,-0.3125 -1.328125,0 -1.75,0.734375 -1.75,1.34375 0,0.390625 0.171875,0.6875 0.46875,0.921875 0.34375,0.296875 0.65625,0.359375 1.4375,0.515625 z m 0,0"
   id="path210" />
      </g>
    </g>
  </g>
</g><g
       inkscape:label=""
       transform="matrix(1.6894946,0,0,1.6894946,263.04145,144.2531)"
       id="g17623"><g
   clip-path="url(#clipPath6694)"
   id="g17577"
   transform="matrix(0.352778,0,0,0.352778,-0.0881944,-0.0163159)">
    <g
   fill="#000000"
   fill-opacity="1"
   id="g17575">
      <g
   id="g17573"
   transform="translate(0,7.5149999)">
        <path
   d="m 2.25,-4.359375 h 1.015625 c 0.21875,0 0.328125,0 0.328125,-0.21875 0,-0.125 -0.109375,-0.125 -0.296875,-0.125 H 2.328125 C 2.71875,-6.25 2.78125,-6.46875 2.78125,-6.53125 c 0,-0.1875 -0.125,-0.296875 -0.3125,-0.296875 -0.03125,0 -0.34375,0.015625 -0.4375,0.390625 l -0.421875,1.734375 h -1.03125 c -0.21875,0 -0.328125,0 -0.328125,0.203125 0,0.140625 0.09375,0.140625 0.3125,0.140625 h 0.953125 c -0.78125,3.09375 -0.828125,3.28125 -0.828125,3.46875 0,0.59375 0.40625,1.015625 1,1.015625 1.109375,0 1.734375,-1.59375 1.734375,-1.6875 0,-0.109375 -0.078125,-0.109375 -0.125,-0.109375 -0.09375,0 -0.109375,0.03125 -0.171875,0.15625 C 2.65625,-0.375 2.078125,-0.125 1.71875,-0.125 c -0.234375,0 -0.34375,-0.140625 -0.34375,-0.5 0,-0.265625 0.015625,-0.328125 0.0625,-0.515625 z m 0,0"
   id="path17571" />
      </g>
    </g>
  </g>
  <g
   clip-path="url(#clipPath624)"
   id="g17585"
   transform="matrix(0.352778,0,0,0.352778,-0.0881944,-0.0163159)">
    <g
   fill="#000000"
   fill-opacity="1"
   id="g17583">
      <g
   id="g17581"
   transform="translate(6.9699998,7.5149999)">
        <path
   d="m 5.984375,-2.515625 c 0.171875,0 0.375,0 0.375,-0.203125 0,-0.21875 -0.203125,-0.21875 -0.375,-0.21875 h -4.625 c 0.125,-1.46875 1.375,-2.515625 2.921875,-2.515625 h 1.703125 c 0.171875,0 0.375,0 0.375,-0.21875 0,-0.21875 -0.203125,-0.21875 -0.375,-0.21875 H 4.25 c -1.859375,0 -3.34375,1.421875 -3.34375,3.171875 0,1.734375 1.484375,3.15625 3.34375,3.15625 h 1.734375 c 0.171875,0 0.375,0 0.375,-0.21875 C 6.359375,0 6.15625,0 5.984375,0 H 4.28125 C 2.734375,0 1.484375,-1.046875 1.359375,-2.515625 Z m 0,0"
   id="path17579" />
      </g>
    </g>
  </g>
  <g
   clip-path="url(#clipPath3767)"
   id="g17593"
   transform="matrix(0.352778,0,0,0.352778,-0.0881944,-0.0163159)">
    <g
   fill="#000000"
   fill-opacity="1"
   id="g17591">
      <g
   id="g17589"
   transform="translate(17.273001,7.5149999)">
        <path
   d="M 2.921875,-3.421875 H 3.3125 l 1.640625,2.53125 C 5.0625,-0.71875 5.328125,-0.296875 5.4375,-0.125 5.515625,0 5.546875,0 5.796875,0 H 7.3125 C 7.5,0 7.671875,0 7.671875,-0.203125 7.671875,-0.28125 7.609375,-0.359375 7.5,-0.375 7.09375,-0.46875 6.5625,-1.1875 6.296875,-1.53125 6.234375,-1.640625 5.6875,-2.359375 4.953125,-3.546875 5.921875,-3.71875 6.859375,-4.140625 6.859375,-5.4375 6.859375,-6.953125 5.25,-7.46875 3.96875,-7.46875 H 0.546875 c -0.203125,0 -0.375,0 -0.375,0.1875 0,0.1875 0.203125,0.1875 0.296875,0.1875 0.625,0 0.671875,0.078125 0.671875,0.625 V -1 c 0,0.546875 -0.046875,0.625 -0.671875,0.625 -0.09375,0 -0.296875,0 -0.296875,0.171875 C 0.171875,0 0.34375,0 0.546875,0 H 3.53125 C 3.734375,0 3.890625,0 3.890625,-0.203125 3.890625,-0.375 3.703125,-0.375 3.59375,-0.375 2.96875,-0.375 2.921875,-0.46875 2.921875,-1 Z m 2.109375,-0.53125 c 0.296875,-0.40625 0.328125,-0.984375 0.328125,-1.46875 0,-0.515625 -0.0625,-1.09375 -0.40625,-1.546875 0.453125,0.09375 1.53125,0.4375 1.53125,1.53125 0,0.71875 -0.328125,1.265625 -1.453125,1.484375 z M 2.921875,-6.5 c 0,-0.234375 0,-0.59375 0.671875,-0.59375 0.9375,0 1.390625,0.390625 1.390625,1.671875 0,1.40625 -0.34375,1.609375 -2.0625,1.609375 z M 1.4375,-0.375 c 0.09375,-0.203125 0.09375,-0.515625 0.09375,-0.609375 v -5.5 c 0,-0.109375 0,-0.40625 -0.09375,-0.609375 h 1.25 c -0.140625,0.171875 -0.140625,0.390625 -0.140625,0.5625 v 5.546875 c 0,0.109375 0,0.40625 0.078125,0.609375 z M 3.765625,-3.421875 C 3.84375,-3.4375 3.875,-3.453125 3.96875,-3.453125 c 0.171875,0 0.40625,-0.015625 0.5625,-0.03125 0.171875,0.25 1.34375,2.203125 2.25,3.109375 h -1.0625 z m 0,0"
   id="path17587" />
      </g>
    </g>
  </g>
  <g
   clip-path="url(#clipPath2911)"
   id="g17601"
   transform="matrix(0.352778,0,0,0.352778,-0.0881944,-0.0163159)">
    <g
   fill="#000000"
   fill-opacity="1"
   id="g17599">
      <g
   id="g17597"
   transform="translate(28.181999,7.5149999)">
        <path
   d="m 2.09375,-4.125 c 0,-0.3125 -0.265625,-0.578125 -0.578125,-0.578125 -0.3125,0 -0.578125,0.265625 -0.578125,0.578125 0,0.3125 0.265625,0.578125 0.578125,0.578125 0.3125,0 0.578125,-0.265625 0.578125,-0.578125 z m 0,3.546875 c 0,-0.3125 -0.265625,-0.578125 -0.578125,-0.578125 -0.3125,0 -0.578125,0.265625 -0.578125,0.578125 C 0.9375,-0.265625 1.203125,0 1.515625,0 1.828125,0 2.09375,-0.265625 2.09375,-0.578125 Z m 0,0"
   id="path17595" />
      </g>
    </g>
  </g>
  <g
   clip-path="url(#clipPath6809)"
   id="g17621"
   transform="matrix(0.352778,0,0,0.352778,-0.0881944,-0.0163159)">
    <g
   fill="#000000"
   fill-opacity="1"
   id="g17619">
      <g
   id="g17605"
   transform="translate(34.245277,7.5149999)">
        <path
   d="M 7.265625,-7.390625 H 0.59375 l -0.203125,2.46875 h 0.28125 c 0.140625,-1.765625 0.3125,-2.125 1.953125,-2.125 0.203125,0 0.484375,0 0.59375,0.015625 0.234375,0.046875 0.234375,0.171875 0.234375,0.421875 v 5.75 c 0,0.375 0,0.515625 -1.15625,0.515625 h -0.4375 V 0 c 0.453125,-0.03125 1.5625,-0.03125 2.0625,-0.03125 0.5,0 1.625,0 2.078125,0.03125 V -0.34375 H 5.5625 c -1.140625,0 -1.140625,-0.140625 -1.140625,-0.515625 v -5.75 c 0,-0.21875 0,-0.375 0.1875,-0.421875 0.125,-0.015625 0.421875,-0.015625 0.625,-0.015625 1.640625,0 1.8125,0.359375 1.96875,2.125 H 7.46875 Z m 0,0"
   id="path17603" />
      </g>
      <g
   id="g17609"
   transform="translate(42.123829,7.5149999)">
        <path
   d="m 1.9375,-4.828125 -1.53125,0.125 v 0.34375 c 0.703125,0 0.796875,0.0625 0.796875,0.59375 v 2.9375 c 0,0.484375 -0.109375,0.484375 -0.84375,0.484375 V 0 c 0.34375,-0.015625 0.9375,-0.03125 1.203125,-0.03125 0.375,0 0.765625,0.015625 1.125,0.03125 v -0.34375 c -0.71875,0 -0.75,-0.046875 -0.75,-0.46875 z M 1.96875,-6.71875 c 0,-0.34375 -0.265625,-0.578125 -0.578125,-0.578125 C 1.0625,-7.296875 0.8125,-7 0.8125,-6.71875 c 0,0.296875 0.25,0.578125 0.578125,0.578125 0.3125,0 0.578125,-0.234375 0.578125,-0.578125 z m 0,0"
   id="path17607" />
      </g>
      <g
   id="g17613"
   transform="translate(45.154377,7.5149999)">
        <path
   d="m 1.203125,-3.75 v 2.921875 c 0,0.484375 -0.125,0.484375 -0.859375,0.484375 V 0 c 0.390625,-0.015625 0.9375,-0.03125 1.234375,-0.03125 0.28125,0 0.859375,0.015625 1.21875,0.03125 v -0.34375 c -0.71875,0 -0.84375,0 -0.84375,-0.484375 v -2 c 0,-1.140625 0.765625,-1.75 1.46875,-1.75 0.6875,0 0.8125,0.59375 0.8125,1.203125 v 2.546875 c 0,0.484375 -0.125,0.484375 -0.859375,0.484375 V 0 c 0.390625,-0.015625 0.9375,-0.03125 1.234375,-0.03125 0.28125,0 0.859375,0.015625 1.21875,0.03125 v -0.34375 c -0.71875,0 -0.84375,0 -0.84375,-0.484375 v -2 c 0,-1.140625 0.78125,-1.75 1.46875,-1.75 0.6875,0 0.8125,0.59375 0.8125,1.203125 v 2.546875 c 0,0.484375 -0.125,0.484375 -0.859375,0.484375 V 0 c 0.390625,-0.015625 0.9375,-0.03125 1.234375,-0.03125 0.28125,0 0.859375,0.015625 1.21875,0.03125 v -0.34375 c -0.5625,0 -0.828125,0 -0.84375,-0.328125 V -2.75 c 0,-0.9375 0,-1.28125 -0.34375,-1.671875 -0.140625,-0.1875 -0.5,-0.40625 -1.140625,-0.40625 -0.921875,0 -1.390625,0.65625 -1.578125,1.078125 C 4.796875,-4.703125 3.984375,-4.828125 3.5,-4.828125 c -0.796875,0 -1.3125,0.46875 -1.609375,1.15625 v -1.15625 l -1.546875,0.125 v 0.34375 c 0.765625,0 0.859375,0.078125 0.859375,0.609375 z m 0,0"
   id="path17611" />
      </g>
      <g
   id="g17617"
   transform="translate(54.24493,7.5149999)">
        <path
   d="m 1.21875,-2.75 c 0.0625,-1.625 0.984375,-1.890625 1.359375,-1.890625 1.125,0 1.234375,1.46875 1.234375,1.890625 z M 1.203125,-2.515625 H 4.25 c 0.25,0 0.28125,0 0.28125,-0.234375 0,-1.078125 -0.59375,-2.140625 -1.953125,-2.140625 -1.265625,0 -2.265625,1.125 -2.265625,2.484375 0,1.46875 1.140625,2.53125 2.390625,2.53125 1.328125,0 1.828125,-1.21875 1.828125,-1.421875 0,-0.109375 -0.09375,-0.125 -0.140625,-0.125 -0.109375,0 -0.125,0.0625 -0.140625,0.140625 -0.390625,1.125 -1.375,1.125 -1.484375,1.125 -0.546875,0 -0.984375,-0.328125 -1.234375,-0.734375 C 1.203125,-1.40625 1.203125,-2.125 1.203125,-2.515625 Z m 0,0"
   id="path17615" />
      </g>
    </g>
  </g>
</g><g
       inkscape:label=""
       transform="matrix(0.82125986,0,0,0.82125986,2.2253138,157.83361)"
       id="g893"><g
   fill="#000000"
   fill-opacity="1"
   id="g56"
   transform="matrix(0.352778,0,0,0.352778,-0.308681,-0.003616)">
    <g
   id="use54"
   transform="translate(0,15.479)">
      <path
   d="m 7.296875,-9.125 v 0.890625 c 1.28125,0 1.421875,0 1.421875,0.796875 v 4.046875 c 0,1.578125 -0.9375,2.828125 -2.546875,2.828125 -1.546875,0 -1.625,-0.515625 -1.625,-1.640625 v -7.09375 L 0.875,-9.125 v 0.890625 c 1.265625,0 1.421875,0 1.421875,0.796875 v 4.890625 c 0,2.078125 1.375,2.671875 3.59375,2.671875 0.484375,0 2.015625,0 2.90625,-1.671875 H 8.8125 V 0.125 L 12.390625,0 v -0.890625 c -1.28125,0 -1.421875,0 -1.421875,-0.796875 v -7.609375 z m 0,0"
   id="path112" />
    </g>
  </g>
  <g
   clip-path="url(#clipPath4119)"
   id="g62"
   transform="matrix(0.352778,0,0,0.352778,-0.308681,-0.003616)">
    <g
   fill="#000000"
   fill-opacity="1"
   id="g60">
      <g
   id="use58"
   transform="translate(12.914,15.479)">
        <path
   d="m 6.328125,5.046875 c 0,-0.03125 0,-0.0625 -0.0625,-0.125 -0.953125,-0.96875 -3.5,-3.625 -3.5,-10.0625 0,-6.453125 2.5,-9.078125 3.515625,-10.109375 0,-0.01563 0.046875,-0.0625 0.046875,-0.125 0,-0.0625 -0.0625,-0.09375 -0.15625,-0.09375 -0.21875,0 -1.984375,1.53125 -2.984375,3.796875 -1.046875,2.296875 -1.328125,4.53125 -1.328125,6.5 0,1.5 0.140625,4.015625 1.390625,6.6875 0.984375,2.140625 2.671875,3.65625 2.921875,3.65625 0.109375,0 0.15625,-0.046875 0.15625,-0.125 z m 0,0"
   id="path116" />
      </g>
    </g>
  </g>
  <g
   fill="#000000"
   fill-opacity="1"
   id="g66"
   transform="matrix(0.352778,0,0,0.352778,-0.308681,-0.003616)">
    <g
   id="use64"
   transform="translate(20.231001,15.479)">
      <path
   d="m 4.15625,-8.296875 h 1.890625 c 0.390625,0 0.609375,0 0.609375,-0.375 0,-0.234375 -0.125,-0.234375 -0.546875,-0.234375 h -1.8125 L 5.0625,-11.921875 c 0.078125,-0.28125 0.078125,-0.328125 0.078125,-0.46875 0,-0.328125 -0.265625,-0.515625 -0.53125,-0.515625 -0.171875,0 -0.640625,0.0625 -0.8125,0.71875 L 3,-8.90625 H 1.046875 c -0.40625,0 -0.59375,0 -0.59375,0.390625 0,0.21875 0.140625,0.21875 0.53125,0.21875 h 1.84375 L 1.46875,-2.84375 c -0.171875,0.71875 -0.234375,0.921875 -0.234375,1.1875 0,0.96875 0.6875,1.859375 1.84375,1.859375 2.09375,0 3.203125,-3.015625 3.203125,-3.15625 0,-0.125 -0.078125,-0.1875 -0.203125,-0.1875 -0.046875,0 -0.125,0 -0.171875,0.078125 -0.015625,0.03125 -0.046875,0.046875 -0.1875,0.375 -0.4375,1.03125 -1.375,2.484375 -2.578125,2.484375 -0.625,0 -0.65625,-0.515625 -0.65625,-0.96875 0,-0.03125 0,-0.421875 0.0625,-0.671875 z m 0,0"
   id="path120" />
    </g>
  </g>
  <g
   clip-path="url(#clipPath9500)"
   id="g72"
   transform="matrix(0.352778,0,0,0.352778,-0.308681,-0.003616)">
    <g
   fill="#000000"
   fill-opacity="1"
   id="g855">
      <g
   id="use68"
   transform="translate(27.537001,15.479)">
        <path
   d="m 5.4375,-5.140625 c 0,-1.484375 -0.15625,-4.015625 -1.390625,-6.671875 -0.984375,-2.15625 -2.6875,-3.65625 -2.9375,-3.65625 -0.0625,0 -0.140625,0.01563 -0.140625,0.125 0,0.03125 0.015625,0.0625 0.046875,0.09375 C 2,-14.21875 4.53125,-11.59375 4.53125,-5.171875 4.53125,1.28125 2.03125,3.90625 1.015625,4.9375 0.984375,4.984375 0.96875,5 0.96875,5.046875 c 0,0.09375 0.078125,0.125 0.140625,0.125 0.234375,0 1.984375,-1.53125 3,-3.8125 1.03125,-2.28125 1.328125,-4.515625 1.328125,-6.5 z m 0,0"
   id="path124" />
      </g>
    </g>
  </g>
  <g
   fill="#000000"
   fill-opacity="1"
   id="g860"
   transform="matrix(0.352778,0,0,0.352778,-0.308681,-0.003616)">
    <g
   id="use74"
   transform="translate(40.594002,15.479)">
      <path
   d="m 11.3125,-4.75 c 0.359375,0 0.734375,0 0.734375,-0.421875 0,-0.40625 -0.375,-0.40625 -0.734375,-0.40625 h -8.75 c 0.25,-2.765625 2.625,-4.75 5.53125,-4.75 h 3.21875 c 0.359375,0 0.734375,0 0.734375,-0.40625 0,-0.421875 -0.375,-0.421875 -0.734375,-0.421875 h -3.25 c -3.53125,0 -6.34375,2.6875 -6.34375,5.984375 0,3.3125 2.8125,6 6.34375,6 h 3.25 c 0.359375,0 0.734375,0 0.734375,-0.421875 C 12.046875,0 11.671875,0 11.3125,0 H 8.09375 C 5.1875,0 2.8125,-1.984375 2.5625,-4.75 Z m 0,0"
   id="path128" />
    </g>
  </g>
  <g
   fill="#000000"
   fill-opacity="1"
   id="g80"
   transform="matrix(0.352778,0,0,0.352778,-0.308681,-0.003616)">
    <g
   id="use78"
   transform="translate(60.109001,15.479)">
      <path
   d="m 5.53125,-6.484375 h 0.75 L 9.375,-1.6875 c 0.203125,0.328125 0.703125,1.125 0.9375,1.4375 C 10.453125,0 10.515625,0 10.984375,0 h 2.859375 c 0.375,0 0.671875,0 0.671875,-0.375 0,-0.15625 -0.125,-0.3125 -0.296875,-0.34375 C 13.453125,-0.890625 12.4375,-2.25 11.9375,-2.90625 11.796875,-3.125 10.765625,-4.484375 9.375,-6.71875 11.21875,-7.046875 13,-7.828125 13,-10.28125 c 0,-2.875 -3.046875,-3.875 -5.484375,-3.875 H 1.03125 c -0.375,0 -0.703125,0 -0.703125,0.375 0,0.359375 0.390625,0.359375 0.5625,0.359375 1.171875,0 1.28125,0.140625 1.28125,1.171875 v 10.34375 c 0,1.03125 -0.109375,1.1875 -1.28125,1.1875 -0.171875,0 -0.5625,0 -0.5625,0.34375 C 0.328125,0 0.65625,0 1.03125,0 H 6.6875 c 0.375,0 0.6875,0 0.6875,-0.375 0,-0.34375 -0.359375,-0.34375 -0.578125,-0.34375 -1.171875,0 -1.265625,-0.171875 -1.265625,-1.1875 z M 9.515625,-7.5 c 0.578125,-0.765625 0.640625,-1.859375 0.640625,-2.765625 0,-0.984375 -0.125,-2.09375 -0.78125,-2.9375 0.84375,0.1875 2.890625,0.828125 2.890625,2.921875 0,1.34375 -0.609375,2.390625 -2.75,2.78125 z M 5.53125,-12.3125 c 0,-0.4375 0,-1.109375 1.28125,-1.109375 1.765625,0 2.625,0.71875 2.625,3.15625 0,2.671875 -0.640625,3.0625 -3.90625,3.0625 z M 2.734375,-0.71875 c 0.15625,-0.375 0.15625,-0.953125 0.15625,-1.140625 v -10.4375 c 0,-0.203125 0,-0.765625 -0.15625,-1.125 h 2.34375 C 4.8125,-13.09375 4.8125,-12.6875 4.8125,-12.375 v 10.515625 c 0,0.203125 0,0.765625 0.171875,1.140625 z M 7.125,-6.484375 C 7.265625,-6.5 7.359375,-6.53125 7.515625,-6.53125 c 0.3125,0 0.765625,-0.03125 1.078125,-0.078125 0.3125,0.5 2.546875,4.171875 4.25,5.890625 h -2 z m 0,0"
   id="path132" />
    </g>
  </g>
  <g
   fill="#000000"
   fill-opacity="1"
   id="g868"
   transform="matrix(0.352778,0,0,0.352778,-0.308681,-0.003616)">
    <g
   id="g866"
   transform="translate(75.031998,7.98)">
      <path
   d="M 2.953125,-4.203125 C 2.984375,-4.28125 3.34375,-5 3.875,-5.46875 c 0.375,-0.34375 0.859375,-0.5625 1.421875,-0.5625 0.5625,0 0.765625,0.421875 0.765625,1 0,0.8125 -0.578125,2.453125 -0.875,3.21875 -0.125,0.34375 -0.203125,0.53125 -0.203125,0.796875 0,0.640625 0.453125,1.15625 1.140625,1.15625 1.328125,0 1.828125,-2.109375 1.828125,-2.1875 C 7.953125,-2.125 7.90625,-2.1875 7.8125,-2.1875 c -0.125,0 -0.140625,0.046875 -0.203125,0.296875 -0.34375,1.171875 -0.875,1.75 -1.4375,1.75 -0.140625,0 -0.375,-0.015625 -0.375,-0.46875 0,-0.359375 0.15625,-0.796875 0.234375,-1 C 6.328125,-2.390625 6.921875,-4 6.921875,-4.8125 c 0,-0.875 -0.5,-1.515625 -1.59375,-1.515625 -1.265625,0 -1.9375,0.90625 -2.203125,1.265625 C 3.078125,-5.875 2.5,-6.328125 1.859375,-6.328125 c -0.453125,0 -0.765625,0.28125 -1.015625,0.765625 -0.25,0.515625 -0.453125,1.375 -0.453125,1.4375 0,0.046875 0.046875,0.125 0.15625,0.125 0.109375,0 0.125,-0.015625 0.21875,-0.34375 0.21875,-0.875 0.484375,-1.6875 1.0625,-1.6875 0.328125,0 0.4375,0.21875 0.4375,0.65625 0,0.3125 -0.140625,0.875 -0.25,1.3125 L 1.625,-2.515625 c -0.0625,0.28125 -0.21875,0.921875 -0.296875,1.1875 -0.09375,0.359375 -0.25,1.046875 -0.25,1.109375 0,0.203125 0.15625,0.359375 0.375,0.359375 0.171875,0 0.375,-0.078125 0.484375,-0.296875 0.03125,-0.078125 0.15625,-0.578125 0.234375,-0.859375 l 0.3125,-1.296875 z m 0,0"
   id="path136" />
    </g>
  </g>
  <g
   fill="#000000"
   fill-opacity="1"
   id="g88"
   transform="matrix(0.352778,0,0,0.352778,-0.308681,-0.003616)">
    <g
   id="use86"
   transform="translate(83.417,10.132)">
      <path
   d="M 4.078125,-0.6875 C 4.234375,-0.03125 4.8125,0.125 5.09375,0.125 c 0.375,0 0.671875,-0.25 0.859375,-0.65625 0.203125,-0.4375 0.359375,-1.140625 0.359375,-1.171875 0,-0.0625 -0.046875,-0.109375 -0.125,-0.109375 -0.109375,0 -0.109375,0.0625 -0.15625,0.234375 C 5.8125,-0.75 5.59375,-0.125 5.109375,-0.125 4.75,-0.125 4.75,-0.515625 4.75,-0.671875 4.75,-0.9375 4.796875,-1.0625 4.90625,-1.5625 5,-1.890625 5.078125,-2.21875 5.15625,-2.546875 L 5.640625,-4.5 C 5.71875,-4.796875 5.71875,-4.8125 5.71875,-4.859375 c 0,-0.171875 -0.140625,-0.296875 -0.3125,-0.296875 -0.34375,0 -0.4375,0.296875 -0.5,0.609375 -0.125,0.453125 -0.765625,3.03125 -0.859375,3.453125 0,0 -0.46875,0.96875 -1.34375,0.96875 -0.625,0 -0.75,-0.53125 -0.75,-0.96875 0,-0.6875 0.34375,-1.640625 0.65625,-2.4375 C 2.75,-3.921875 2.8125,-4.078125 2.8125,-4.3125 c 0,-0.515625 -0.375,-0.953125 -0.953125,-0.953125 -1.09375,0 -1.53125,1.734375 -1.53125,1.828125 0,0.046875 0.046875,0.109375 0.125,0.109375 0.109375,0 0.125,-0.046875 0.171875,-0.21875 0.28125,-1.03125 0.75,-1.484375 1.203125,-1.484375 0.125,0 0.3125,0.015625 0.3125,0.390625 0,0.3125 -0.125,0.65625 -0.3125,1.109375 C 1.296875,-2.109375 1.25,-1.65625 1.25,-1.296875 1.25,-0.078125 2.15625,0.125 2.65625,0.125 c 0.765625,0 1.1875,-0.53125 1.421875,-0.8125 z m 0,0"
   id="path140" />
    </g>
  </g>
  <g
   fill="#000000"
   fill-opacity="1"
   id="g92"
   transform="matrix(0.352778,0,0,0.352778,-0.308681,-0.003616)">
    <g
   id="use90"
   transform="translate(96.815002,15.479)">
      <path
   d="m 3.421875,-8.03125 c 0,-0.515625 -0.40625,-0.84375 -0.84375,-0.84375 -0.40625,0 -0.84375,0.328125 -0.84375,0.84375 0,0.515625 0.40625,0.84375 0.84375,0.84375 0.421875,0 0.84375,-0.328125 0.84375,-0.84375 z m 0,7.1875 c 0,-0.515625 -0.40625,-0.84375 -0.84375,-0.84375 -0.40625,0 -0.84375,0.328125 -0.84375,0.84375 C 1.734375,-0.328125 2.140625,0 2.578125,0 3,0 3.421875,-0.328125 3.421875,-0.84375 Z m 0,0"
   id="path144" />
    </g>
  </g>
  <g
   fill="#000000"
   fill-opacity="1"
   id="g891"
   transform="matrix(0.352778,0,0,0.352778,-0.308681,-0.003616)">
    <g
   id="use94"
   transform="translate(107.71654,15.479)">
      <path
   d="m 9.046875,-14.03125 c 0,-0.359375 -0.015625,-0.390625 -0.140625,-0.390625 -0.125,0 -0.171875,0.09375 -0.25,0.265625 l -0.625,1.375 C 7.25,-13.921875 6.046875,-14.4375 4.75,-14.4375 c -2.109375,0 -3.796875,1.671875 -3.796875,3.78125 0,0.640625 0.140625,1.546875 0.84375,2.421875 C 2.5625,-7.296875 3.28125,-7.125 4.9375,-6.6875 5.5625,-6.53125 6.59375,-6.265625 6.796875,-6.171875 7.96875,-5.6875 8.59375,-4.4375 8.59375,-3.28125 c 0,1.484375 -1.046875,3.078125 -2.84375,3.078125 -2.21875,0 -4.28125,-1.25 -4.421875,-4.140625 -0.03125,-0.328125 -0.046875,-0.34375 -0.1875,-0.34375 -0.171875,0 -0.1875,0.015625 -0.1875,0.4375 v 4.171875 c 0,0.375 0.015625,0.390625 0.140625,0.390625 0.140625,0 0.1875,-0.109375 0.46875,-0.75 C 1.59375,-0.5 1.59375,-0.53125 1.984375,-1.328125 3.015625,0.046875 4.75,0.328125 5.75,0.328125 c 2.25,0 3.828125,-1.875 3.828125,-4.0625 0,-1.078125 -0.390625,-1.90625 -0.609375,-2.28125 -0.875,-1.3125 -1.796875,-1.5625 -2.796875,-1.8125 -0.140625,-0.0625 -0.1875,-0.0625 -1.34375,-0.359375 C 3.71875,-8.46875 3.25,-8.609375 2.734375,-9.171875 2.140625,-9.8125 1.9375,-10.46875 1.9375,-11.140625 c 0,-1.328125 1.078125,-2.796875 2.828125,-2.796875 2.203125,0 3.5625,1.546875 3.875,4.125 0.0625,0.375 0.078125,0.390625 0.21875,0.390625 0.1875,0 0.1875,-0.0625 0.1875,-0.40625 z m 0,0"
   id="path148" />
    </g>
    <g
   id="g879"
   transform="translate(118.273,15.479)">
      <path
   d="M 3.125,-8.34375 H 6.015625 V -8.875 H 3.125 v -3.828125 H 2.75 c -0.046875,2.125 -0.765625,3.984375 -2.515625,4.03125 V -8.34375 H 2.03125 v 5.796875 c 0,0.40625 0,2.71875 2.390625,2.71875 1.21875,0 1.921875,-1.203125 1.921875,-2.734375 v -1.171875 h -0.375 v 1.15625 c 0,1.421875 -0.5625,2.375 -1.421875,2.375 C 3.953125,-0.203125 3.125,-0.625 3.125,-2.5 Z m 0,0"
   id="path152" />
    </g>
    <g
   id="use98"
   transform="translate(125.5896,15.479)">
      <path
   d="m 7.4375,-5.34375 c 0,-1.375 0,-2.09375 -0.875,-2.890625 C 5.796875,-8.921875 4.921875,-9.125 4.21875,-9.125 c -1.640625,0 -2.8125,1.28125 -2.8125,2.640625 0,0.765625 0.625,0.796875 0.734375,0.796875 0.28125,0 0.75,-0.15625 0.75,-0.734375 0,-0.515625 -0.390625,-0.75 -0.75,-0.75 -0.078125,0 -0.171875,0.03125 -0.234375,0.046875 0.421875,-1.296875 1.546875,-1.671875 2.265625,-1.671875 1.03125,0 2.171875,0.90625 2.171875,2.640625 V -5.25 C 5.125,-5.203125 3.65625,-5.046875 2.5,-4.421875 c -1.296875,0.71875 -1.671875,1.75 -1.671875,2.546875 0,1.578125 1.859375,2.046875 2.953125,2.046875 1.140625,0 2.1875,-0.640625 2.640625,-1.828125 0.046875,0.90625 0.625,1.734375 1.53125,1.734375 0.4375,0 1.53125,-0.28125 1.53125,-1.921875 V -3 h -0.375 v 1.1875 c 0,1.25 -0.5625,1.421875 -0.828125,1.421875 C 7.4375,-0.390625 7.4375,-1.46875 7.4375,-2.375 Z M 6.34375,-2.875 c 0,1.796875 -1.28125,2.703125 -2.421875,2.703125 -1.03125,0 -1.828125,-0.75 -1.828125,-1.703125 0,-0.625 0.265625,-1.71875 1.453125,-2.375 1,-0.5625 2.140625,-0.640625 2.796875,-0.6875 z m 0,0"
   id="path156" />
    </g>
    <g
   id="g884"
   transform="translate(135.06541,15.479)">
      <path
   d="M 3.125,-8.34375 H 6.015625 V -8.875 H 3.125 v -3.828125 H 2.75 c -0.046875,2.125 -0.765625,3.984375 -2.515625,4.03125 V -8.34375 H 2.03125 v 5.796875 c 0,0.40625 0,2.71875 2.390625,2.71875 1.21875,0 1.921875,-1.203125 1.921875,-2.734375 v -1.171875 h -0.375 v 1.15625 c 0,1.421875 -0.5625,2.375 -1.421875,2.375 C 3.953125,-0.203125 3.125,-0.625 3.125,-2.5 Z m 0,0"
   id="path160" />
    </g>
    <g
   id="use102"
   transform="translate(142.382,15.479)">
      <path
   d="m 7.875,-4.859375 c 0.078125,-0.078125 0.078125,-0.125 0.078125,-0.328125 0,-2.109375 -1.109375,-3.9375 -3.46875,-3.9375 -2.1875,0 -3.921875,2.078125 -3.921875,4.625 0,2.6875 1.953125,4.671875 4.140625,4.671875 2.3125,0 3.234375,-2.203125 3.234375,-2.625 0,-0.15625 -0.125,-0.15625 -0.171875,-0.15625 -0.140625,0 -0.171875,0.046875 -0.25,0.296875 -0.453125,1.40625 -1.59375,2.109375 -2.65625,2.109375 -0.890625,0 -1.78125,-0.5 -2.34375,-1.40625 C 1.875,-2.671875 1.875,-3.890625 1.875,-4.859375 Z m -5.96875,-0.3125 c 0.140625,-2.96875 1.734375,-3.625 2.5625,-3.625 1.390625,0 2.34375,1.3125 2.375,3.625 z m 0,0"
   id="path164" />
    </g>
    <g
   id="g889"
   transform="translate(150.77925,15.479)">
      <path
   d="m 6.375,-8.71875 c 0,-0.375 -0.015625,-0.390625 -0.140625,-0.390625 -0.078125,0 -0.09375,0.015625 -0.34375,0.328125 -0.0625,0.078125 -0.25,0.296875 -0.3125,0.375 -0.65625,-0.703125 -1.59375,-0.71875 -1.9375,-0.71875 -2.296875,0 -3.125,1.1875 -3.125,2.390625 0,1.859375 2.109375,2.296875 2.703125,2.421875 1.3125,0.265625 1.765625,0.34375 2.1875,0.71875 0.28125,0.25 0.734375,0.703125 0.734375,1.453125 0,0.859375 -0.5,1.96875 -2.40625,1.96875 -1.796875,0 -2.4375,-1.359375 -2.8125,-3.171875 C 0.875,-3.640625 0.875,-3.65625 0.703125,-3.65625 c -0.171875,0 -0.1875,0.015625 -0.1875,0.4375 V -0.25 c 0,0.375 0.015625,0.390625 0.140625,0.390625 0.109375,0 0.125,-0.015625 0.234375,-0.1875 0.125,-0.1875 0.4375,-0.671875 0.5625,-0.875 0.40625,0.546875 1.125,1.09375 2.28125,1.09375 2.046875,0 3.140625,-1.125 3.140625,-2.734375 0,-1.046875 -0.546875,-1.609375 -0.828125,-1.859375 C 5.4375,-5.0625 4.703125,-5.203125 3.84375,-5.375 2.703125,-5.625 1.265625,-5.90625 1.265625,-7.171875 c 0,-0.53125 0.28125,-1.671875 2.375,-1.671875 2.203125,0 2.328125,2.0625 2.375,2.734375 0.015625,0.09375 0.125,0.125 0.1875,0.125 0.171875,0 0.171875,-0.0625 0.171875,-0.421875 z m 0,0"
   id="path168" />
    </g>
  </g>
</g></g></svg>
