<?xml version="1.0" encoding="UTF-8" standalone="no"?>
<!-- Created with Inkscape (http://www.inkscape.org/) -->

<svg
   width="39.83857mm"
   height="39.900002mm"
   viewBox="0 0 39.83857 39.900002"
   version="1.1"
   id="svg2690"
   xmlns="http://www.w3.org/2000/svg"
   xmlns:svg="http://www.w3.org/2000/svg">
  <defs
     id="defs2687" />
  <g
     id="layer1"
     transform="translate(-21.627096,-135.29786)">
    <g
       id="g316"
       transform="matrix(0.62795722,0,0,-0.62795722,41.545941,171.06988)"
       style="fill:#f2f2f2;fill-opacity:1">
      <path
         d="m 0,0 c 1.616,0 9.495,-0.112 17.278,0.664 5.066,0.505 6.712,2.769 7.166,7.167 0.803,7.789 0.674,15.725 0.674,17.323 0,1.6 0.104,9.54 -0.674,17.322 -0.442,4.414 -1.981,6.665 -7.166,7.167 C 9.492,50.395 1.616,50.307 0,50.307 c -1.522,0 -9.494,0.11 -17.277,-0.664 -5.273,-0.526 -6.744,-2.972 -7.166,-7.167 -0.784,-7.801 -0.675,-15.781 -0.675,-17.322 0,-1.591 -0.139,-9.55 0.675,-17.323 0.468,-4.471 2.191,-6.678 7.166,-7.167 C -9.493,-0.099 -1.582,0 0,0 v -6.567 c -1.582,0 -11.473,-0.14 -20.564,0.863 -5.756,0.635 -9.789,5.56 -10.318,10.749 -1.053,10.28 -0.815,18.452 -0.815,20.109 0,1.6 -0.193,10.306 0.815,20.108 0.517,5.038 4.611,10.06 10.318,10.749 9.088,1.096 19.042,0.948 20.564,0.948 1.616,0 11.328,0.118 20.563,-0.948 5.839,-0.674 9.835,-5.923 10.32,-10.749 0.988,-9.821 0.815,-18.508 0.815,-20.108 0,-1.598 0.24,-9.653 -0.815,-20.109 C 30.336,-0.376 26.135,-5.108 20.563,-5.704 11.463,-6.678 1.675,-6.567 0,-6.567 Z"
         style="fill:#f2f2f2;fill-opacity:1;fill-rule:nonzero;stroke:none"
         id="path318" />
    </g>
    <g
       id="g320"
       transform="matrix(0.62795722,0,0,-0.62795722,45.113429,142.29362)"
       style="fill:#f2f2f2;fill-opacity:1">
      <path
         d="m 0,0 0.402,-8.766 h 12.911 c 0.208,0 0.445,-0.029 0.948,0.089 0.593,-13.651 0.119,-17.925 -0.118,-26.69 L 8.22,-35.723 c 0.238,3.791 0.296,7.205 0.296,9.28 l -2.162,-0.061 c -0.118,0 -0.192,0.016 -0.34,-0.059 l -0.282,8.292 H 0.699 l 0.77,-23.61 c -5.712,-0.237 -9.088,-0.237 -14.299,0 l 0.814,23.61 h -5.079 l -0.281,-8.292 c -0.147,0.075 -0.222,0.059 -0.34,0.059 l -2.162,0.061 c 0,-2.075 0.059,-5.489 0.296,-9.28 l -5.922,0.356 c -0.237,8.765 -0.711,13.039 -0.119,26.69 0.504,-0.118 0.74,-0.089 0.948,-0.089 h 12.985 l 0.163,4.856 -4.975,-0.195 c 0.119,0.355 0.178,0.532 0.178,0.71 l 0.207,3.347 c 0,0.236 -0.03,0.444 -0.149,0.74 5.77,0.24 9.819,0.376 16.405,0.137 C 0.065,0.369 0,0.147 0,0"
         style="fill:#f2f2f2;fill-opacity:1;fill-rule:nonzero;stroke:none"
         id="path322" />
    </g>
  </g>
</svg>
